<?xml version="1.0" encoding="utf-8"?>
<!-- Generator: Adobe Illustrator 16.0.0, SVG Export Plug-In . SVG Version: 6.00 Build 0)  -->
<!DOCTYPE svg PUBLIC "-//W3C//DTD SVG 1.1//EN" "http://www.w3.org/Graphics/SVG/1.1/DTD/svg11.dtd">
<svg version="1.1" xmlns="http://www.w3.org/2000/svg" xmlns:xlink="http://www.w3.org/1999/xlink" x="0px" y="0px" width="612px"
	 height="523.288px" viewBox="0 0 612 523.288" enable-background="new 0 0 612 523.288" xml:space="preserve">
<g id="Layer_2">
</g>
<g id="Layer_1">
	<g id="EYU29V_1_">
		<g>
			<g>
				<path fill="none" d="M52.001,384.351c0-97.6,0-195.2,0-292.8c78.24,0,156.48,0,234.72,0c-1.533,0.329-3.051,0.823-4.601,0.959
					c-6.206,0.544-12.28,1.813-18.343,3.156c-1.354,0.3-2.688,0.708-4.014,1.121c-2.463,0.766-4.932,1.521-7.366,2.375
					c-2.728,0.958-5.469,1.907-8.114,3.065c-3.007,1.316-5.936,2.817-8.858,4.317c-2.537,1.303-5.101,2.585-7.503,4.111
					c-3.486,2.215-6.861,4.61-10.242,6.986c-5.428,3.814-10.354,8.225-15.006,12.936c-6.092,6.17-11.642,12.8-16.319,20.114
					c-2.183,3.412-4.23,6.915-6.203,10.453c-1.408,2.527-2.643,5.157-3.855,7.787c-1.162,2.519-2.271,5.068-3.264,7.658
					c-0.867,2.26-1.584,4.581-2.286,6.9c-0.861,2.849-1.685,5.712-2.432,8.593c-0.53,2.039-0.932,4.112-1.322,6.184
					c-0.051,0.271,0.231,0.755,0.491,0.896c0.319,0.171,0.777,0.106,1.174,0.106c17.595,0.003,35.189-0.005,52.784,0.021
					c1.153,0.002,1.775-0.324,2.225-1.47c3.025-7.715,7.23-14.752,12.577-21.079c7.769-9.193,17.141-16.277,28.183-21.122
					c8.928-3.917,18.26-6.118,27.998-6.46c4.462-0.157,8.91,0.02,13.371,0.605c9.203,1.208,17.892,3.934,26.035,8.314
					c3.5,1.883,6.778,4.181,10.157,6.29c0.412,0.429,0.805,0.877,1.239,1.282c3.293,3.066,6.775,5.952,9.853,9.221
					c5.283,5.613,9.38,12.07,12.665,19.056c4.092,8.702,6.386,17.865,7.13,27.416c0.549,7.049-0.006,14.047-1.416,20.979
					c-1.66,8.162-4.597,15.838-8.708,23.074c-2.771,4.878-6.121,9.337-9.802,13.558c-0.506-0.227-1.117-0.34-1.501-0.697
					c-8.551-7.939-17.079-15.9-25.604-23.867c-7.795-7.284-15.579-14.579-23.373-21.865c-0.535-0.5-1.106-0.961-1.728-1.499
					c-0.046,0.263-0.07,0.338-0.071,0.413c-0.01,18.906-0.023,37.812,0,56.718c0,0.475,0.299,1.066,0.648,1.407
					c2.977,2.9,6.016,5.736,8.996,8.633c1.246,1.211,2.395,2.522,3.575,3.774c-0.143,0.084-0.343,0.203-0.542,0.322
					c-3.498,0.567-6.978,1.304-10.497,1.663c-5.408,0.55-10.826,0.476-16.246-0.181c-8.227-0.998-16.086-3.213-23.607-6.672
					c-0.42-0.193-0.905-0.247-1.36-0.365c-0.265-0.172-0.516-0.373-0.797-0.513c-4.447-2.199-8.606-4.852-12.538-7.873
					c-4.707-3.616-8.92-7.734-12.638-12.357c-0.25-0.312-0.307-0.778-0.514-1.339c1.523-0.07,2.754-0.174,3.985-0.176
					c11.317-0.021,22.635-0.024,33.952-0.033c1.601-0.001,1.585,0,1.585-1.54c-0.004-13.757-0.019-27.514,0.026-41.27
					c0.004-1.156-0.265-1.512-1.443-1.511c-21.113,0.028-42.227,0.015-63.341,0.015c-14.396,0-28.793,0.004-43.19,0.013
					c-0.696,0-1.392,0.066-2.198,0.107c0.396,3.516,0.693,6.841,1.165,10.142c0.439,3.071,1,6.127,1.625,9.166
					c0.633,3.079,1.284,6.164,2.158,9.179c0.972,3.353,2.154,6.649,3.339,9.935c0.968,2.686,1.927,5.391,3.155,7.961
					c1.897,3.972,3.838,7.944,6.094,11.717c2.795,4.672,5.757,9.267,8.96,13.668c4.963,6.82,10.745,12.938,16.994,18.61
					c4.696,4.263,9.688,8.143,14.983,11.626c2.687,1.768,5.419,3.469,8.185,5.11c1.425,0.847,2.967,1.496,4.455,2.234
					c0.688,0.444,1.34,0.959,2.069,1.318c2.275,1.124,4.54,2.283,6.882,3.251c2.784,1.15,5.617,2.199,8.478,3.141
					c3.625,1.193,7.263,2.384,10.963,3.3c3.668,0.908,7.409,1.551,11.141,2.173c5.19,0.866,10.383,1.718,15.687,1.567
					c6.696-0.19,13.419,0.431,20.081-0.783c3.292-0.601,6.624-0.987,9.908-1.628c3.085-0.603,6.144-1.358,9.188-2.146
					c2.578-0.667,5.152-1.38,7.667-2.249c2.773-0.96,5.502-2.062,8.204-3.21c2.766-1.175,5.476-2.479,8.21-3.727
					c0.329,0.209,0.704,0.37,0.98,0.635c4.363,4.175,8.726,8.349,13.051,12.562c0.598,0.581,1.185,0.791,2,0.79
					c20.557-0.02,41.112-0.016,61.668-0.016c0.381,0,0.762,0,1.142,0c0.087-0.125,0.173-0.251,0.26-0.376
					c-0.249-0.123-0.546-0.194-0.741-0.376c-6.351-5.909-12.688-11.834-19.036-17.748c-7.547-7.031-15.102-14.053-22.642-21.091
					c-0.271-0.254-0.419-0.641-0.624-0.966c3.234-3.734,6.633-7.341,9.665-11.233c4.331-5.561,8.205-11.454,11.408-17.754
					c1.779-3.5,3.635-6.975,5.155-10.588c1.552-3.69,2.882-7.491,4.04-11.324c1.379-4.564,2.698-9.169,3.629-13.84
					c1.073-5.388,2.172-10.845,2.412-16.31c0.484-11.009,0.553-22.056-1.705-32.944c-0.743-3.586-1.555-7.161-2.437-10.715
					c-0.679-2.738-1.375-5.487-2.313-8.143c-1.282-3.627-2.729-7.201-4.241-10.739c-1.246-2.918-2.555-5.825-4.075-8.605
					c-1.903-3.484-4.011-6.86-6.103-10.237c-3.662-5.909-7.938-11.352-12.585-16.52c-5.323-5.919-11.128-11.31-17.43-16.165
					c-1.365-1.052-2.859-1.937-4.294-2.899c-0.926-0.679-1.812-1.42-2.784-2.026c-3.26-2.034-6.521-4.067-9.838-6.007
					c-1.977-1.156-4.023-2.204-6.097-3.178c-2.433-1.143-4.909-2.199-7.401-3.208c-2.827-1.145-5.645-2.348-8.552-3.25
					c-3.784-1.175-7.655-2.065-11.482-3.104c-4.77-1.294-9.646-1.957-14.538-2.567c-2.059-0.257-4.088-0.741-6.13-1.122
					c84.221,0,168.443,0,252.72,0c0,98,0,196,0,294c-0.376-0.826-0.972-1.624-1.084-2.485c-0.259-1.974-1.213-3.579-2.24-5.19
					c-1.579-2.478-3.468-4.652-5.886-6.354c-3.572-2.515-7.325-4.688-11.591-5.762c-3.194-0.805-6.413-1.685-9.673-2.016
					c-3.772-0.384-7.602-0.21-11.406-0.267c-4.202-0.062-8.404-0.146-12.606-0.151c-3.28-0.004-6.561,0.14-9.841,0.14
					c-3.099,0.001-6.196-0.144-9.295-0.144c-3.273,0.001-6.546,0.113-9.819,0.143c-0.911,0.008-1.824-0.161-2.735-0.15
					c-2.537,0.027-5.073,0.135-7.61,0.158c-3.064,0.029-6.129,0.027-9.193-0.005c-2.472-0.025-4.942-0.165-7.413-0.163
					c-2.408,0.002-4.816,0.167-7.226,0.176c-6.711,0.022-13.422,0-20.134-0.002c-3.837-0.002-7.674,0.021-11.511-0.007
					c-2.498-0.018-4.995-0.156-7.492-0.153c-2.536,0.004-5.071,0.146-7.607,0.172c-2.72,0.027-5.44-0.002-8.161-0.021
					c-5.846-0.04-11.691-0.118-17.538-0.126c-3.764-0.005-7.527,0.106-11.291,0.132c-3.984,0.026-7.968,0.027-11.952,0.008
					c-1.616-0.008-3.232-0.15-4.848-0.143c-4.959,0.026-9.917,0.115-14.875,0.143c-4.184,0.023-8.368-0.008-12.552-0.011
					c-4.359-0.005-8.718,0.013-13.077-0.014c-2.352-0.015-4.703-0.144-7.054-0.146c-1.975-0.003-3.95,0.155-5.925,0.147
					c-4.296-0.017-8.593-0.133-12.889-0.134c-3.496-0.001-6.992,0.132-10.488,0.16c-3.367,0.027-6.735,0.015-10.102-0.015
					c-2.465-0.021-4.929-0.146-7.393-0.141c-2.643,0.007-5.286,0.146-7.929,0.166c-3.84,0.027-7.682-0.004-11.522-0.005
					c-4.328-0.002-8.657,0.018-12.985-0.006c-1.514-0.008-3.027-0.168-4.541-0.162c-2.849,0.012-5.697,0.128-8.546,0.133
					c-2.336,0.004-4.672-0.136-7.009-0.131c-2.898,0.008-5.796,0.142-8.694,0.142c-2.833,0-5.665-0.138-8.497-0.145
					c-2.257-0.006-4.514,0.136-6.771,0.134c-2.095-0.001-4.19-0.162-6.284-0.152c-3.658,0.018-7.314,0.137-10.972,0.163
					c-1.672,0.012-3.345-0.146-5.017-0.138c-3.576,0.017-7.151,0.105-10.727,0.138c-3.44,0.03-6.88,0.042-10.32,0.024
					c-1.273-0.006-2.547-0.18-3.82-0.172c-3.124,0.019-6.248,0.131-9.372,0.142c-2.28,0.007-4.56-0.134-6.839-0.128
					c-2.89,0.007-5.779,0.111-8.668,0.143c-2.504,0.028-5.01,0.068-7.513,0.006c-4.372-0.11-8.652,0.354-12.911,1.41
					c-4.134,1.025-8.009,2.583-11.693,4.688c-4,2.287-7.122,5.468-9.505,9.364c-0.628,1.026-1.054,2.24-1.289,3.424
					C53.091,383.274,52.817,383.937,52.001,384.351z"/>
				<path fill-rule="evenodd" clip-rule="evenodd" fill="#062E4A" d="M52.001,384.351c0.816-0.414,1.09-1.077,1.27-1.983
					c0.234-1.184,0.661-2.397,1.289-3.424c2.384-3.896,5.505-7.077,9.505-9.364c3.684-2.105,7.559-3.663,11.693-4.688
					c4.258-1.056,8.539-1.521,12.911-1.41c2.503,0.062,5.009,0.022,7.513-0.006c2.89-0.031,5.779-0.136,8.668-0.143
					c2.279-0.006,4.559,0.135,6.839,0.128c3.124-0.011,6.248-0.123,9.372-0.142c1.273-0.008,2.546,0.166,3.82,0.172
					c3.44,0.018,6.88,0.006,10.32-0.024c3.576-0.032,7.151-0.121,10.727-0.138c1.672-0.008,3.345,0.149,5.017,0.138
					c3.657-0.026,7.314-0.146,10.972-0.163c2.094-0.01,4.189,0.151,6.284,0.152c2.257,0.002,4.514-0.14,6.771-0.134
					c2.833,0.007,5.665,0.145,8.497,0.145c2.898,0,5.796-0.134,8.694-0.142c2.336-0.005,4.673,0.135,7.009,0.131
					c2.849-0.005,5.697-0.121,8.546-0.133c1.514-0.006,3.027,0.154,4.541,0.162c4.328,0.023,8.657,0.004,12.985,0.006
					c3.84,0.001,7.682,0.032,11.522,0.005c2.643-0.02,5.286-0.159,7.929-0.166c2.464-0.006,4.928,0.119,7.393,0.141
					c3.367,0.029,6.735,0.042,10.102,0.015c3.496-0.028,6.992-0.161,10.488-0.16c4.296,0.001,8.592,0.117,12.889,0.134
					c1.975,0.008,3.95-0.15,5.925-0.147c2.351,0.003,4.702,0.132,7.054,0.146c4.359,0.026,8.718,0.009,13.077,0.014
					c4.184,0.003,8.368,0.034,12.552,0.011c4.958-0.027,9.916-0.116,14.875-0.143c1.615-0.008,3.231,0.135,4.848,0.143
					c3.984,0.02,7.968,0.019,11.952-0.008c3.764-0.025,7.527-0.137,11.291-0.132c5.847,0.008,11.692,0.086,17.538,0.126
					c2.721,0.02,5.441,0.049,8.161,0.021c2.536-0.026,5.071-0.168,7.607-0.172c2.497-0.003,4.994,0.136,7.492,0.153
					c3.837,0.028,7.674,0.005,11.511,0.007c6.712,0.002,13.423,0.024,20.134,0.002c2.409-0.009,4.817-0.174,7.226-0.176
					c2.471-0.002,4.941,0.138,7.413,0.163c3.064,0.032,6.129,0.034,9.193,0.005c2.537-0.023,5.073-0.131,7.61-0.158
					c0.911-0.011,1.824,0.158,2.735,0.15c3.273-0.029,6.546-0.142,9.819-0.143c3.099,0,6.196,0.145,9.295,0.144
					c3.28,0,6.561-0.144,9.841-0.14c4.202,0.006,8.404,0.09,12.606,0.151c3.805,0.057,7.634-0.117,11.406,0.267
					c3.26,0.331,6.479,1.211,9.673,2.016c4.266,1.074,8.019,3.247,11.591,5.762c2.418,1.702,4.307,3.877,5.886,6.354
					c1.027,1.611,1.981,3.217,2.24,5.19c0.112,0.861,0.708,1.659,1.084,2.485c0,1.04,0,2.08,0,3.12
					c-0.36,0.872-0.832,1.716-1.062,2.621c-1.094,4.299-3.639,7.674-6.976,10.384c-2.301,1.868-4.85,3.524-7.505,4.838
					c-2.432,1.202-5.107,2.015-7.761,2.638c-3.085,0.725-6.247,1.316-9.402,1.494c-4.473,0.252-8.969,0.076-13.455,0.077
					c-7.164,0.003-14.327,0.001-21.49,0c-3.931,0-7.861-0.005-11.793-0.001c-3.864,0.004-7.729-0.001-11.593,0.03
					c-2.898,0.023-5.797,0.144-8.695,0.139c-3.199-0.005-6.398-0.153-9.599-0.15c-5.554,0.005-11.106,0.105-16.659,0.115
					c-4.048,0.007-8.096-0.084-12.143-0.098c-1.913-0.007-3.826,0.105-5.739,0.097c-5.122-0.024-10.244-0.095-15.366-0.129
					c-2.646-0.018-5.294,0.003-7.941,0.004c-5.464,0-10.929-0.02-16.394,0.005c-3.257,0.014-6.513,0.141-9.769,0.137
					c-4.259-0.005-8.516-0.119-12.773-0.128c-2.657-0.005-5.314,0.142-7.972,0.142c-2.616,0-5.23-0.139-7.847-0.144
					c-2.334-0.005-4.668,0.136-7.002,0.131c-3.264-0.009-6.527-0.136-9.79-0.133c-3.537,0.002-7.073,0.128-10.609,0.138
					c-2.541,0.006-5.081-0.139-7.621-0.131c-3.126,0.011-6.253,0.156-9.379,0.157c-2.759,0.001-5.519-0.166-8.278-0.172
					c-8.129-0.017-16.258,0.003-24.386,0.024c-2.217,0.007-4.434,0.104-6.651,0.098c-3.219-0.009-6.438-0.107-9.658-0.106
					c-3.567,0.001-7.135,0.107-10.703,0.103c-4.257-0.005-8.513-0.114-12.77-0.114c-3.979,0.001-7.957,0.124-11.935,0.123
					c-4.443,0-8.887-0.12-13.33-0.112c-5.992,0.011-11.983,0.119-17.975,0.136c-3.122,0.009-6.243-0.11-9.365-0.134
					c-3.759-0.028-7.519-0.037-11.278-0.015c-5.008,0.03-10.016,0.132-15.024,0.14c-3.72,0.007-7.441-0.108-11.161-0.13
					c-4.48-0.025-8.961-0.012-13.441-0.012c-7.825,0.001-15.649-0.007-23.474,0.01c-4.413,0.01-8.834,0.196-13.172-0.901
					c-1.116-0.282-2.275-0.42-3.364-0.777c-2.598-0.855-5.259-1.604-7.722-2.761c-3.39-1.592-6.464-3.694-9.109-6.446
					c-1.568-1.633-2.888-3.389-3.779-5.406c-0.925-2.095-1.54-4.327-2.29-6.499C52.001,386.751,52.001,385.551,52.001,384.351z"/>
				<path fill-rule="evenodd" clip-rule="evenodd" fill="#ED1F24" d="M304.481,91.551c2.042,0.381,4.072,0.865,6.13,1.122
					c4.892,0.61,9.769,1.272,14.538,2.567c3.827,1.039,7.698,1.929,11.482,3.104c2.907,0.903,5.725,2.105,8.552,3.25
					c2.492,1.009,4.969,2.065,7.401,3.208c2.073,0.974,4.12,2.022,6.097,3.178c3.316,1.939,6.578,3.973,9.838,6.007
					c0.972,0.606,1.858,1.347,2.784,2.025c-0.197,0.39-0.37,0.796-0.596,1.169c-6.677,11.007-13.354,22.014-20.043,33.014
					c-2.878,4.732-5.784,9.449-8.677,14.172c-3.379-2.109-6.657-4.407-10.157-6.29c-8.144-4.381-16.832-7.107-26.035-8.314
					c-4.461-0.585-8.909-0.762-13.371-0.605c-9.738,0.342-19.07,2.543-27.998,6.46c-11.042,4.845-20.414,11.929-28.183,21.122
					c-5.346,6.326-9.551,13.364-12.577,21.079c-0.45,1.146-1.072,1.472-2.225,1.47c-17.595-0.026-35.189-0.018-52.784-0.021
					c-0.397,0-0.855,0.065-1.174-0.106c-0.26-0.14-0.542-0.625-0.491-0.896c0.391-2.071,0.792-4.145,1.322-6.184
					c0.748-2.881,1.571-5.744,2.432-8.593c0.701-2.319,1.419-4.64,2.286-6.9c0.993-2.589,2.102-5.139,3.264-7.658
					c1.213-2.63,2.447-5.26,3.855-7.787c1.972-3.538,4.02-7.041,6.203-10.453c4.678-7.314,10.228-13.944,16.319-20.114
					c4.651-4.711,9.578-9.122,15.006-12.936c3.381-2.376,6.756-4.771,10.242-6.986c2.403-1.526,4.966-2.809,7.503-4.111
					c2.922-1.5,5.851-3,8.858-4.317c2.646-1.158,5.386-2.108,8.114-3.065c2.434-0.854,4.903-1.609,7.366-2.375
					c1.326-0.413,2.659-0.821,4.014-1.121c6.063-1.343,12.137-2.612,18.343-3.156c1.549-0.136,3.068-0.63,4.601-0.959
					C292.641,91.551,298.561,91.551,304.481,91.551z"/>
				<path fill-rule="evenodd" clip-rule="evenodd" fill="none" d="M52.001,387.951c0.75,2.172,1.364,4.404,2.29,6.499
					c0.892,2.018,2.211,3.773,3.779,5.406c2.645,2.752,5.719,4.854,9.109,6.446c2.463,1.157,5.124,1.905,7.722,2.761
					c1.089,0.357,2.248,0.495,3.364,0.777c4.338,1.098,8.759,0.911,13.172,0.901c7.825-0.017,15.649-0.009,23.474-0.01
					c4.48,0,8.961-0.014,13.441,0.012c3.72,0.021,7.441,0.137,11.161,0.13c5.008-0.008,10.016-0.109,15.024-0.14
					c3.759-0.022,7.519-0.014,11.278,0.015c3.122,0.023,6.243,0.143,9.365,0.134c5.992-0.017,11.983-0.125,17.975-0.136
					c4.443-0.008,8.887,0.112,13.33,0.112c3.979,0.001,7.957-0.122,11.935-0.123c4.257,0,8.513,0.109,12.77,0.114
					c3.567,0.005,7.135-0.102,10.703-0.103c3.22-0.001,6.439,0.098,9.658,0.106c2.217,0.006,4.434-0.091,6.651-0.098
					c8.128-0.021,16.257-0.041,24.386-0.024c2.759,0.006,5.519,0.173,8.278,0.172c3.126-0.001,6.253-0.146,9.379-0.157
					c2.54-0.008,5.08,0.137,7.621,0.131c3.536-0.01,7.072-0.136,10.609-0.138c3.263-0.003,6.526,0.124,9.79,0.133
					c2.334,0.005,4.668-0.136,7.002-0.131c2.616,0.005,5.23,0.144,7.847,0.144c2.657,0,5.314-0.146,7.972-0.142
					c4.258,0.009,8.515,0.123,12.773,0.128c3.256,0.004,6.512-0.123,9.769-0.137c5.465-0.024,10.93-0.005,16.394-0.005
					c2.647-0.001,5.295-0.021,7.941-0.004c5.122,0.034,10.244,0.104,15.366,0.129c1.913,0.009,3.826-0.104,5.739-0.097
					c4.047,0.014,8.095,0.104,12.143,0.098c5.553-0.01,11.105-0.11,16.659-0.115c3.2-0.003,6.399,0.146,9.599,0.15
					c2.898,0.005,5.797-0.115,8.695-0.139c3.864-0.031,7.729-0.026,11.593-0.03c3.932-0.004,7.862,0.001,11.793,0.001
					c7.163,0.001,14.326,0.003,21.49,0c4.486-0.001,8.982,0.175,13.455-0.077c3.155-0.178,6.317-0.77,9.402-1.494
					c2.653-0.623,5.329-1.436,7.761-2.638c2.655-1.313,5.204-2.97,7.505-4.838c3.337-2.71,5.882-6.085,6.976-10.384
					c0.23-0.905,0.702-1.749,1.062-2.621c0,7.518,0,15.036,0,22.556c-168.4,0.001-336.8,0.001-505.2,0
					C52.001,403.467,52.001,395.709,52.001,387.951z"/>
				<path fill-rule="evenodd" clip-rule="evenodd" fill="#072E4A" d="M341.988,164.369c2.893-4.723,5.799-9.439,8.677-14.172
					c6.689-11,13.366-22.007,20.043-33.014c0.226-0.373,0.398-0.779,0.596-1.169c1.435,0.962,2.929,1.848,4.294,2.899
					c6.302,4.855,12.106,10.246,17.43,16.165c4.647,5.167,8.923,10.61,12.585,16.52c2.092,3.377,4.199,6.753,6.103,10.237
					c1.521,2.781,2.829,5.688,4.075,8.605c1.512,3.539,2.959,7.112,4.241,10.739c0.938,2.656,1.635,5.404,2.313,8.143
					c0.882,3.555,1.693,7.129,2.437,10.715c2.258,10.889,2.189,21.935,1.705,32.944c-0.24,5.464-1.339,10.921-2.412,16.31
					c-0.931,4.67-2.25,9.275-3.629,13.84c-1.158,3.833-2.488,7.634-4.04,11.324c-1.521,3.613-3.376,7.088-5.155,10.588
					c-3.203,6.3-7.077,12.193-11.408,17.754c-3.032,3.893-6.431,7.499-9.665,11.233c-1.011-0.82-2.074-1.585-3.025-2.47
					c-7.478-6.961-14.932-13.946-22.397-20.919c-3.325-3.104-6.683-6.174-9.977-9.31c-0.716-0.681-1.225-1.578-1.828-2.376
					c3.681-4.22,7.03-8.68,9.802-13.558c4.111-7.236,7.048-14.912,8.708-23.074c1.41-6.932,1.965-13.93,1.416-20.979
					c-0.744-9.551-3.038-18.714-7.13-27.416c-3.285-6.986-7.382-13.443-12.665-19.056c-3.077-3.269-6.56-6.155-9.853-9.221
					C342.793,165.246,342.4,164.797,341.988,164.369z"/>
				<path fill-rule="evenodd" clip-rule="evenodd" fill="#ED1F24" d="M235.644,339.61c-1.489-0.739-3.031-1.389-4.456-2.235
					c-2.765-1.642-5.498-3.343-8.185-5.11c-5.295-3.483-10.287-7.363-14.983-11.626c-6.25-5.672-12.031-11.79-16.994-18.61
					c-3.203-4.401-6.165-8.996-8.96-13.668c-2.256-3.772-4.197-7.745-6.094-11.717c-1.228-2.57-2.187-5.276-3.155-7.961
					c-1.185-3.286-2.367-6.582-3.339-9.935c-0.874-3.015-1.525-6.1-2.158-9.179c-0.625-3.039-1.187-6.095-1.625-9.166
					c-0.472-3.3-0.769-6.626-1.165-10.142c0.806-0.041,1.502-0.106,2.198-0.107c14.397-0.009,28.793-0.014,43.19-0.013
					c21.114,0,42.228,0.014,63.341-0.015c1.178-0.001,1.447,0.355,1.443,1.511c-0.044,13.756-0.03,27.513-0.026,41.27
					c0,1.54,0.016,1.539-1.585,1.54c-11.317,0.009-22.635,0.012-33.952,0.033c-1.231,0.002-2.462,0.106-3.985,0.176
					c0.208,0.561,0.264,1.028,0.514,1.339c3.717,4.623,7.931,8.741,12.638,12.357c3.932,3.021,8.091,5.674,12.538,7.873
					c0.282,0.14,0.532,0.34,0.797,0.513c-0.302,0.561-0.58,1.137-0.91,1.681c-6.16,10.168-12.32,20.336-18.496,30.495
					C240.06,332.493,237.842,336.045,235.644,339.61z"/>
				<path fill-rule="evenodd" clip-rule="evenodd" fill="#45789C" d="M352.949,278.955c0.604,0.798,1.112,1.695,1.828,2.376
					c3.294,3.136,6.651,6.206,9.977,9.31c7.466,6.973,14.92,13.958,22.397,20.919c0.951,0.885,2.015,1.649,3.025,2.47
					c0.205,0.325,0.353,0.712,0.624,0.966c7.54,7.038,15.095,14.06,22.642,21.091c6.348,5.914,12.686,11.839,19.036,17.748
					c0.195,0.182,0.492,0.253,0.741,0.376c-0.087,0.125-0.173,0.251-0.26,0.376c-0.38,0-0.761,0-1.142,0
					c-20.556,0-41.111-0.004-61.668,0.016c-0.815,0.001-1.402-0.209-2-0.79c-4.325-4.213-8.688-8.387-13.051-12.562
					c-0.276-0.265-0.651-0.426-0.98-0.635c-0.361-0.462-0.673-0.975-1.092-1.376c-4.502-4.312-9.037-8.59-13.532-12.909
					c-5.592-5.374-11.152-10.78-16.73-16.168c-1.983-1.916-3.921-3.886-5.991-5.704c-1.003-0.88-1.749-2.299-3.423-2.164
					c0.199-0.119,0.399-0.237,0.542-0.322c-1.181-1.252-2.329-2.563-3.575-3.774c-2.98-2.897-6.02-5.732-8.996-8.633
					c-0.35-0.341-0.648-0.932-0.648-1.407c-0.023-18.906-0.011-37.812,0-56.718c0-0.075,0.024-0.149,0.071-0.413
					c0.622,0.537,1.193,0.999,1.728,1.499c7.793,7.286,15.578,14.581,23.373,21.865c8.525,7.966,17.054,15.928,25.604,23.867
					C351.832,278.615,352.443,278.729,352.949,278.955z"/>
				<path fill-rule="evenodd" clip-rule="evenodd" fill="#072E4B" d="M313.351,302.294c1.674-0.135,2.42,1.284,3.423,2.164
					c2.07,1.818,4.008,3.788,5.991,5.704c5.578,5.388,11.139,10.794,16.73,16.168c4.495,4.319,9.03,8.597,13.532,12.909
					c0.419,0.401,0.73,0.914,1.092,1.376c-2.734,1.247-5.444,2.552-8.21,3.727c-2.702,1.147-5.431,2.25-8.204,3.21
					c-2.515,0.869-5.089,1.582-7.667,2.249c-3.044,0.788-6.103,1.544-9.188,2.146c-3.284,0.641-6.616,1.027-9.908,1.628
					c-6.662,1.214-13.384,0.593-20.081,0.783c-5.303,0.15-10.497-0.701-15.687-1.567c-3.731-0.622-7.472-1.265-11.141-2.173
					c-3.7-0.916-7.338-2.106-10.963-3.3c-2.861-0.941-5.694-1.99-8.478-3.141c-2.342-0.968-4.607-2.127-6.882-3.251
					c-0.729-0.359-1.382-0.874-2.069-1.318c2.199-3.563,4.417-7.116,6.592-10.695c6.176-10.158,12.336-20.326,18.496-30.495
					c0.33-0.544,0.607-1.12,0.91-1.681c0.455,0.119,0.939,0.172,1.36,0.365c7.521,3.459,15.381,5.675,23.607,6.672
					c5.419,0.657,10.838,0.731,16.246,0.181C306.373,303.599,309.853,302.862,313.351,302.294z"/>
			</g>
		</g>
	</g>
	<rect x="84.786" y="375.716" fill="none" width="464" height="47.799"/>
	
		<text transform="matrix(1 0 0 1 88.7861 394.5151)" fill="#FFFFFF" font-family="'Baskerville'" font-size="28" letter-spacing="3">GENTLEMAN’S QUARTERS</text>
</g>
</svg>
