<svg id="Layer_1" data-name="Layer 1" xmlns="http://www.w3.org/2000/svg" viewBox="0 0 54 54"><defs><style>.cls-1{fill:#fff;}</style></defs><title>In-White-0p75in-R</title><path class="cls-1" d="M53.55,0h-46a3.94,3.94,0,0,0-4,3.89V50.1a4,4,0,0,0,4,3.9h46a4,4,0,0,0,4-3.9V3.89A3.94,3.94,0,0,0,53.55,0Zm-34,46h-8V20.24h8Zm-4-29.29a4.65,4.65,0,1,1,4.64-4.64A4.64,4.64,0,0,1,15.55,16.72ZM49.56,46h-8V33.48c0-3,0-6.83-4.16-6.83s-4.8,3.26-4.8,6.62V46h-8V20.24h7.68v3.53h.11A8.42,8.42,0,0,1,40,19.61c8.11,0,9.61,5.33,9.61,12.27Z" transform="translate(-3.54)"/></svg>